<svg width="24" height="24" viewBox="0 0 24 24" fill="none"
     xmlns="http://www.w3.org/2000/svg">

    <path d="M5 5H19C20.1 5 21 5.9 21 7V15C21 16.1 20.1 17 19 17H11L7 20V17H5C3.9 17 3 16.1 3 15V7C3 5.9 3.9 5 5 5Z"
          stroke="#D4A63A"
          stroke-width="1.5"
          stroke-linejoin="round"/>

    <path d="M9.5 9.5C9.6 8.3 10.6 7.5 12 7.5C13.5 7.5 14.5 8.4 14.5 9.6C14.5 10.7 13.8 11.3 12.8 12C12.1 12.5 11.8 13 11.8 14"
          stroke="#D4A63A"
          stroke-width="1.5"
          stroke-linecap="round"/>

    <circle cx="11.8" cy="16" r="0.8"
            fill="#D4A63A"/>
</svg>